<svg width="134" height="23" viewBox="0 0 134 23" xmlns="http://www.w3.org/2000/svg"><title>CLD.LIFE</title><desc>Created with Sketch.</desc><g fill="none" fill-rule="evenodd"><path d="M19.64 15.218c0 .683-.17 1.423-.506 2.22-.337.795-.866 1.576-1.59 2.343-.722.767-1.645 1.39-2.768 1.868-1.123.48-2.43.718-3.925.718-1.132 0-2.162-.107-3.09-.322-.928-.215-1.77-.55-2.527-1.003-.757-.454-1.453-1.052-2.087-1.794-.567-.674-1.05-1.428-1.45-2.263-.4-.835-.7-1.726-.902-2.673-.2-.948-.3-1.954-.3-3.018 0-1.73.252-3.276.755-4.644.5-1.367 1.222-2.536 2.16-3.508.937-.972 2.035-1.71 3.295-2.22C7.965.414 9.308.16 10.733.16c1.74 0 3.287.346 4.644 1.04 1.357.693 2.397 1.55 3.12 2.57.723 1.02 1.084 1.985 1.084 2.893 0 .498-.175.938-.526 1.318-.352.382-.777.573-1.275.573-.557 0-.975-.132-1.253-.396-.278-.263-.59-.718-.93-1.362-.567-1.065-1.233-1.86-2-2.388-.766-.527-1.71-.79-2.834-.79-1.787 0-3.21.678-4.27 2.035-1.06 1.358-1.59 3.286-1.59 5.786 0 1.67.235 3.06.703 4.168.47 1.108 1.133 1.936 1.993 2.483.858.546 1.864.82 3.016.82 1.25 0 2.307-.31 3.172-.93.864-.62 1.516-1.532 1.955-2.733.186-.566.415-1.028.69-1.384.272-.357.712-.535 1.317-.535.518 0 .962.18 1.333.542.37.36.557.81.557 1.348zm8.173-12.422v15.63h8.82c.702 0 1.242.17 1.617.512.376.342.564.772.564 1.29 0 .527-.185.954-.556 1.28-.37.328-.913.492-1.626.492H26.13c-.948 0-1.63-.21-2.045-.63-.415-.42-.622-1.1-.622-2.036V2.796c0-.88.198-1.538.593-1.978.396-.44.916-.66 1.56-.66.655 0 1.184.218 1.59.653.405.436.607 1.097.607 1.986zM44.366.526h5.67c1.474 0 2.738.136 3.793.41 1.054.273 2.01.786 2.87 1.538 2.237 1.914 3.355 4.824 3.355 8.73 0 1.29-.113 2.466-.337 3.53-.225 1.065-.572 2.024-1.04 2.88-.47.853-1.07 1.617-1.802 2.29-.576.52-1.206.934-1.89 1.246-.683.313-1.418.533-2.204.66-.786.127-1.673.19-2.66.19h-5.668c-.79 0-1.387-.12-1.787-.36-.4-.238-.662-.575-.784-1.01-.122-.434-.183-.998-.183-1.692V3.19c0-.936.21-1.615.63-2.035.42-.42 1.1-.63 2.036-.63zm1.685 3.442v14.575h3.297c.722 0 1.29-.02 1.7-.06.41-.038.834-.135 1.273-.292.44-.155.82-.375 1.143-.658 1.455-1.23 2.183-3.35 2.183-6.357 0-2.12-.32-3.706-.96-4.76-.64-1.056-1.428-1.727-2.366-2.015-.937-.288-2.07-.432-3.398-.432h-2.87zm17.945 18.398c-.605 0-1.128-.195-1.567-.586-.44-.39-.66-.937-.66-1.64 0-.596.21-1.11.63-1.538.42-.43.938-.645 1.553-.645.616 0 1.14.212 1.576.637.434.425.652.94.652 1.546 0 .693-.218 1.237-.652 1.633-.435.395-.945.593-1.53.593zm11.28-19.57v15.63h8.818c.703 0 1.242.17 1.618.512.377.342.565.772.565 1.29 0 .527-.185.954-.556 1.28-.372.328-.914.492-1.627.492H73.59c-.947 0-1.63-.21-2.044-.63-.415-.42-.622-1.1-.622-2.036V2.796c0-.88.198-1.538.593-1.978.396-.44.916-.66 1.56-.66.654 0 1.184.218 1.59.653.405.436.607 1.097.607 1.986zm14.033 16.92V2.795c0-.88.2-1.538.6-1.978.4-.44.918-.66 1.553-.66.655 0 1.185.218 1.59.653.406.436.608 1.097.608 1.986v16.92c0 .888-.202 1.552-.608 1.99-.405.44-.935.66-1.59.66-.624 0-1.14-.222-1.544-.666-.406-.445-.608-1.106-.608-1.985zM111.354 3.88h-8.57v5.493h7.163c.664 0 1.16.15 1.487.447.327.298.49.696.49 1.194s-.165.893-.497 1.186c-.332.293-.825.44-1.48.44h-7.163v7.075c0 .898-.202 1.565-.608 2-.405.434-.925.65-1.56.65-.644 0-1.17-.22-1.574-.658-.406-.44-.608-1.103-.608-1.992V3.19c0-.624.092-1.134.278-1.53.185-.395.476-.683.87-.864.397-.18.902-.27 1.518-.27h10.254c.693 0 1.208.153 1.545.46.336.308.504.71.504 1.21 0 .507-.168.915-.505 1.222-.338.308-.853.462-1.546.462zm19.438 0h-9.8v5.273h9.024c.664 0 1.16.15 1.486.447.328.298.49.69.49 1.18 0 .488-.16.886-.482 1.193-.323.308-.82.462-1.494.462h-9.024v6.108h10.137c.683 0 1.198.16 1.544.476.347.316.52.74.52 1.266 0 .508-.173.92-.52 1.238-.346.317-.86.476-1.545.476h-11.822c-.948 0-1.63-.21-2.044-.63-.415-.42-.622-1.1-.622-2.036V3.19c0-.624.092-1.134.278-1.53.185-.395.476-.683.872-.864.395-.18.9-.27 1.516-.27h11.484c.693 0 1.208.153 1.545.46.337.308.506.71.506 1.21 0 .507-.17.915-.506 1.222-.337.308-.852.462-1.545.462z" fill="#fff"/></g></svg>